#Comment line ignore any data following # character 
#Hierarchical Translation and Rotation (.htr) file 
[Header]	
#Header keywords are followed by a single value 
FileType HTR		#Single word string
DataType HTRS		#Translation followed by rotation and scale data
FileVersion 1		#integer
NumSegments 84		#integer
NumFrames 2		#integer
DataFrameRate 30		#integer, data frame rate in this file
EulerRotationOrder ZYX
CalibrationUnits mm
RotationUnits Degrees
GlobalAxisofGravity Y
BoneLengthAxis Y
ScaleFactor 1.00
[SegmentNames&Hierarchy]
#CHILD	PARENT
MASTER GLOBAL
root MASTER
chest root
L_mid_tent01 root
R_mid_tent01 root
spine01 root
Bip01_Neck chest
L_humerus chest
R_humerus chest
weapon_bone chest
Bip01_Head Bip01_Neck
eye_left_bone Bip01_Head
eye_right_bone Bip01_Head
L_forearm L_humerus
L_front_hand L_forearm
L_weapon_bone L_forearm
L_front_hand01_01 L_front_hand
L_front_hand02_01 L_front_hand
L_front_hand03_01 L_front_hand
L_front_hand01_02 L_front_hand01_01
L_front_hand02_02 L_front_hand02_01
L_front_hand03_02 L_front_hand03_01
R_forearm R_humerus
R_front_hand R_forearm
R_weapon_bone R_forearm
R_front_hand01_01 R_front_hand
R_front_hand02_01 R_front_hand
R_front_hand03_01 R_front_hand
R_front_hand01_02 R_front_hand01_01
R_front_hand02_02 R_front_hand02_01
R_front_hand03_02 R_front_hand03_01
null_rope01_connect L_mid_tent01
Rope1_Seg01 null_rope01_connect
Rope1_Seg02 Rope1_Seg01
Rope1_Seg03 Rope1_Seg02
Rope1_Seg04 Rope1_Seg03
Rope1_Seg05 Rope1_Seg04
Rope1_Seg06 Rope1_Seg05
Rope1_Seg07 Rope1_Seg06
Rope1_Seg09 Rope1_Seg07
L_mid_hand01 Rope1_Seg09
L_mid_hand02 Rope1_Seg09
L_mid_hand03 Rope1_Seg09
null_rope02_connect R_mid_tent01
Rope2_Seg01 null_rope02_connect
Rope2_Seg02 Rope2_Seg01
Rope2_Seg03 Rope2_Seg02
Rope2_Seg04 Rope2_Seg03
Rope2_Seg05 Rope2_Seg04
Rope2_Seg06 Rope2_Seg05
Rope2_Seg07 Rope2_Seg06
Rope2_Seg09 Rope2_Seg07
R_mid_hand01 Rope2_Seg09
R_mid_hand02 Rope2_Seg09
R_mid_hand03 Rope2_Seg09
spine02 spine01
spine03 spine02
pelvis spine03
null_rope03_connect pelvis
null_rope04_connect pelvis
Rope3_Seg01 null_rope03_connect
Rope3_Seg02 Rope3_Seg01
Rope3_Seg03 Rope3_Seg02
Rope3_Seg04 Rope3_Seg03
Rope3_Seg05 Rope3_Seg04
Rope3_Seg06 Rope3_Seg05
Rope3_Seg07 Rope3_Seg06
Rope3_Seg08 Rope3_Seg07
Rope3_Seg09 Rope3_Seg08
R_rear_hand01 Rope3_Seg09
R_rear_hand02 Rope3_Seg09
R_rear_hand03 Rope3_Seg09
Rope4_Seg01 null_rope04_connect
Rope4_Seg02 Rope4_Seg01
Rope4_Seg03 Rope4_Seg02
Rope4_Seg04 Rope4_Seg03
Rope4_Seg05 Rope4_Seg04
Rope4_Seg06 Rope4_Seg05
Rope4_Seg07 Rope4_Seg06
Rope4_Seg08 Rope4_Seg07
Rope4_Seg09 Rope4_Seg08
L_rear_hand01 Rope4_Seg09
L_rear_hand02 Rope4_Seg09
L_rear_hand03 Rope4_Seg09
[BasePosition]
#SegmentName Tx, Ty, Tz, Rx, Ry, Rz, BoneLength
MASTER 0.000000 0.000000 0.000000 -90.000000 0.000000 0.000000 10.000000 
root 0.000000 0.000000 0.000000 0.000000 0.000000 0.000000 10.000000 
chest 0.000000 0.000000 0.000000 0.000000 0.000000 0.000000 10.000000 
L_mid_tent01 0.000000 0.000000 0.000000 0.000000 0.000000 0.000000 10.000000 
R_mid_tent01 0.000000 0.000000 0.000000 0.000000 0.000000 0.000000 10.000000 
spine01 0.000000 0.000000 0.000000 0.000000 0.000000 0.000000 10.000000 
Bip01_Neck 0.000000 0.000000 0.000000 0.000000 0.000000 0.000000 10.000000 
L_humerus 0.000000 0.000000 0.000000 0.000000 0.000000 0.000000 10.000000 
R_humerus 0.000000 0.000000 0.000000 0.000000 0.000000 0.000000 10.000000 
weapon_bone 0.000000 0.000000 0.000000 0.000000 0.000000 0.000000 10.000000 
Bip01_Head 0.000000 0.000000 0.000000 0.000000 0.000000 0.000000 10.000000 
eye_left_bone 0.000000 0.000000 0.000000 0.000000 0.000000 0.000000 10.000000 
eye_right_bone 0.000000 0.000000 0.000000 0.000000 0.000000 0.000000 10.000000 
L_forearm 0.000000 0.000000 0.000000 0.000000 0.000000 0.000000 10.000000 
L_front_hand 0.000000 0.000000 0.000000 0.000000 0.000000 0.000000 10.000000 
L_weapon_bone 0.000000 0.000000 0.000000 0.000000 0.000000 0.000000 10.000000 
L_front_hand01_01 0.000000 0.000000 0.000000 0.000000 0.000000 0.000000 10.000000 
L_front_hand02_01 0.000000 0.000000 0.000000 0.000000 0.000000 0.000000 10.000000 
L_front_hand03_01 0.000000 0.000000 0.000000 0.000000 0.000000 0.000000 10.000000 
L_front_hand01_02 0.000000 0.000000 0.000000 0.000000 0.000000 0.000000 10.000000 
L_front_hand02_02 0.000000 0.000000 0.000000 0.000000 0.000000 0.000000 10.000000 
L_front_hand03_02 0.000000 0.000000 0.000000 0.000000 0.000000 0.000000 10.000000 
R_forearm 0.000000 0.000000 0.000000 0.000000 0.000000 0.000000 10.000000 
R_front_hand 0.000000 0.000000 0.000000 0.000000 0.000000 0.000000 10.000000 
R_weapon_bone 0.000000 0.000000 0.000000 0.000000 0.000000 0.000000 10.000000 
R_front_hand01_01 0.000000 0.000000 0.000000 0.000000 0.000000 0.000000 10.000000 
R_front_hand02_01 0.000000 0.000000 0.000000 0.000000 0.000000 0.000000 10.000000 
R_front_hand03_01 0.000000 0.000000 0.000000 0.000000 0.000000 0.000000 10.000000 
R_front_hand01_02 0.000000 0.000000 0.000000 0.000000 0.000000 0.000000 10.000000 
R_front_hand02_02 0.000000 0.000000 0.000000 0.000000 0.000000 0.000000 10.000000 
R_front_hand03_02 0.000000 0.000000 0.000000 0.000000 0.000000 0.000000 10.000000 
null_rope01_connect 0.000000 0.000000 0.000000 0.000000 0.000000 0.000000 10.000000 
Rope1_Seg01 0.000000 0.000000 0.000000 0.000000 0.000000 0.000000 10.000000 
Rope1_Seg02 0.000000 0.000000 0.000000 0.000000 0.000000 0.000000 10.000000 
Rope1_Seg03 0.000000 0.000000 0.000000 0.000000 0.000000 0.000000 10.000000 
Rope1_Seg04 0.000000 0.000000 0.000000 0.000000 0.000000 0.000000 10.000000 
Rope1_Seg05 0.000000 0.000000 0.000000 0.000000 0.000000 0.000000 10.000000 
Rope1_Seg06 0.000000 0.000000 0.000000 0.000000 0.000000 0.000000 10.000000 
Rope1_Seg07 0.000000 0.000000 0.000000 0.000000 0.000000 0.000000 10.000000 
Rope1_Seg09 0.000000 0.000000 0.000000 0.000000 0.000000 0.000000 10.000000 
L_mid_hand01 0.000000 0.000000 0.000000 0.000000 0.000000 0.000000 10.000000 
L_mid_hand02 0.000000 0.000000 0.000000 0.000000 0.000000 0.000000 10.000000 
L_mid_hand03 0.000000 0.000000 0.000000 0.000000 0.000000 0.000000 10.000000 
null_rope02_connect 0.000000 0.000000 0.000000 0.000000 0.000000 0.000000 10.000000 
Rope2_Seg01 0.000000 0.000000 0.000000 0.000000 0.000000 0.000000 10.000000 
Rope2_Seg02 0.000000 0.000000 0.000000 0.000000 0.000000 0.000000 10.000000 
Rope2_Seg03 0.000000 0.000000 0.000000 0.000000 0.000000 0.000000 10.000000 
Rope2_Seg04 0.000000 0.000000 0.000000 0.000000 0.000000 0.000000 10.000000 
Rope2_Seg05 0.000000 0.000000 0.000000 0.000000 0.000000 0.000000 10.000000 
Rope2_Seg06 0.000000 0.000000 0.000000 0.000000 0.000000 0.000000 10.000000 
Rope2_Seg07 0.000000 0.000000 0.000000 0.000000 0.000000 0.000000 10.000000 
Rope2_Seg09 0.000000 0.000000 0.000000 0.000000 0.000000 0.000000 10.000000 
R_mid_hand01 0.000000 0.000000 0.000000 0.000000 0.000000 0.000000 10.000000 
R_mid_hand02 0.000000 0.000000 0.000000 0.000000 0.000000 0.000000 10.000000 
R_mid_hand03 0.000000 0.000000 0.000000 0.000000 0.000000 0.000000 10.000000 
spine02 0.000000 0.000000 0.000000 0.000000 0.000000 0.000000 10.000000 
spine03 0.000000 0.000000 0.000000 0.000000 0.000000 0.000000 10.000000 
pelvis 0.000000 0.000000 0.000000 0.000000 0.000000 0.000000 10.000000 
null_rope03_connect 0.000000 0.000000 0.000000 0.000000 0.000000 0.000000 10.000000 
null_rope04_connect 0.000000 0.000000 0.000000 0.000000 0.000000 0.000000 10.000000 
Rope3_Seg01 0.000000 0.000000 0.000000 0.000000 0.000000 0.000000 10.000000 
Rope3_Seg02 0.000000 0.000000 0.000000 0.000000 0.000000 0.000000 10.000000 
Rope3_Seg03 0.000000 0.000000 0.000000 0.000000 0.000000 0.000000 10.000000 
Rope3_Seg04 0.000000 0.000000 0.000000 0.000000 0.000000 0.000000 10.000000 
Rope3_Seg05 0.000000 0.000000 0.000000 0.000000 0.000000 0.000000 10.000000 
Rope3_Seg06 0.000000 0.000000 0.000000 0.000000 0.000000 0.000000 10.000000 
Rope3_Seg07 0.000000 0.000000 0.000000 0.000000 0.000000 0.000000 10.000000 
Rope3_Seg08 0.000000 0.000000 0.000000 0.000000 0.000000 0.000000 10.000000 
Rope3_Seg09 0.000000 0.000000 0.000000 0.000000 0.000000 0.000000 10.000000 
R_rear_hand01 0.000000 0.000000 0.000000 0.000000 0.000000 0.000000 10.000000 
R_rear_hand02 0.000000 0.000000 0.000000 0.000000 0.000000 0.000000 10.000000 
R_rear_hand03 0.000000 0.000000 0.000000 0.000000 0.000000 0.000000 10.000000 
Rope4_Seg01 0.000000 0.000000 0.000000 0.000000 0.000000 0.000000 10.000000 
Rope4_Seg02 0.000000 0.000000 0.000000 0.000000 0.000000 0.000000 10.000000 
Rope4_Seg03 0.000000 0.000000 0.000000 0.000000 0.000000 0.000000 10.000000 
Rope4_Seg04 0.000000 0.000000 0.000000 0.000000 0.000000 0.000000 10.000000 
Rope4_Seg05 0.000000 0.000000 0.000000 0.000000 0.000000 0.000000 10.000000 
Rope4_Seg06 0.000000 0.000000 0.000000 0.000000 0.000000 0.000000 10.000000 
Rope4_Seg07 0.000000 0.000000 0.000000 0.000000 0.000000 0.000000 10.000000 
Rope4_Seg08 0.000000 0.000000 0.000000 0.000000 0.000000 0.000000 10.000000 
Rope4_Seg09 0.000000 0.000000 0.000000 0.000000 0.000000 0.000000 10.000000 
L_rear_hand01 0.000000 0.000000 0.000000 0.000000 0.000000 0.000000 10.000000 
L_rear_hand02 0.000000 0.000000 0.000000 0.000000 0.000000 0.000000 10.000000 
L_rear_hand03 0.000000 0.000000 0.000000 0.000000 0.000000 0.000000 10.000000 
#Beginning of Data. Separated by tabs
#Fr	Tx	Ty	Tz	Rx	Ry	Rz	SF
[MASTER]
46 -115.822990 4086.353271 352.093689 0.001660 0.001660 0.001660 4103.128906
47 -108.304413 4225.863281 326.944153 0.001660 0.001660 0.001660 4239.875488
[root]
46 2.696706 444.668274 1104.892334 -96.235008 -37.029190 -86.953629 1191.018188
47 5.252707 403.014160 1092.790161 -95.750916 -37.009235 -87.269943 1164.748169
[chest]
46 -84.512650 -34.090519 0.000000 -5.375531 -22.677492 141.799896 91.129311
47 -84.512650 -34.090519 0.000000 1.567362 -18.523083 131.519608 91.129311
[L_mid_tent01]
46 27.299175 22.178991 -249.918701 -15.356088 25.411518 35.472515 252.381683
47 27.299177 22.178989 -249.918701 -15.940312 24.529846 33.746239 252.381683
[R_mid_tent01]
46 23.228794 24.509907 226.238495 -173.925247 -25.608574 39.508671 228.744751
47 23.228794 24.509907 226.238495 -173.214066 -25.139111 38.336903 228.744751
[spine01]
46 -0.361383 -0.195265 0.000000 -0.000001 -0.000007 22.052340 0.410763
47 -0.361383 -0.195265 0.000000 -0.000001 -0.000007 22.052340 0.410763
[Bip01_Neck]
46 165.484543 71.581718 0.000119 176.643677 -1.657967 43.431911 180.302734
47 165.484543 71.581718 0.000119 176.643677 -1.657967 43.431911 180.302734
[L_humerus]
46 -13.983130 -135.272980 -120.471481 15.937584 80.238838 106.276176 181.680161
47 -13.983130 -135.272980 -120.471481 13.028708 79.595215 103.355415 181.680161
[R_humerus]
46 -13.983309 -135.273102 125.287651 32.298702 -83.595131 62.880184 184.909012
47 -13.983309 -135.273102 125.287651 31.767681 -82.689491 63.447117 184.909012
[weapon_bone]
46 235.964890 -300.705902 0.000000 0.000000 -89.951546 -128.212341 382.234833
47 235.964890 -300.705902 0.000000 0.000000 -89.951546 -128.212341 382.234833
[Bip01_Head]
46 203.285965 162.408508 31.616488 14.385776 3.070236 -46.566715 262.109344
47 203.285980 162.408508 31.616488 9.851707 2.936842 -45.282211 262.109344
[eye_left_bone]
46 -24.626970 125.451866 -64.772606 0.000000 -90.000000 -99.840431 143.318359
47 -24.626970 125.451866 -64.772606 0.000000 -90.000000 -99.840431 143.318359
[eye_right_bone]
46 -24.626970 125.451866 64.327362 0.000000 -89.965736 80.156380 143.117676
47 -24.626970 125.451866 64.327362 0.000000 -89.965736 80.156380 143.117676
[L_forearm]
46 322.776093 0.000000 -0.000119 0.000000 0.002347 -89.992828 322.776093
47 322.776093 0.000000 -0.000119 0.000247 0.002334 -77.938141 322.776093
[L_front_hand]
46 241.149185 -0.042021 -3.300071 0.836591 -1.835726 -27.423458 241.171753
47 241.149185 -0.042021 -3.300071 0.836591 -1.835726 -27.423462 241.171753
[L_weapon_bone]
46 156.183838 0.000000 0.000000 0.000014 0.000007 0.000001 156.183838
47 156.183838 0.000000 0.000000 0.000014 0.000007 0.000001 156.183838
[L_front_hand01_01]
46 86.095154 20.947098 -0.655860 -0.366594 -0.477154 75.385574 88.609184
47 86.095154 20.947098 -0.655860 -0.366594 -0.477154 75.385574 88.609184
[L_front_hand02_01]
46 86.935165 -11.437475 24.513514 154.399796 -59.883835 -61.369587 91.046425
47 86.935165 -11.437475 24.513514 154.399796 -59.883835 -61.369587 91.046425
[L_front_hand03_01]
46 86.637497 -14.123976 -20.424902 -153.913849 58.118122 -62.702866 90.126129
47 86.637497 -14.123976 -20.424902 -153.913849 58.118122 -62.702866 90.126129
[L_front_hand01_02]
46 71.020905 -0.000179 0.000030 0.000334 -0.002323 -106.379684 71.020905
47 71.020905 -0.000179 0.000030 0.000334 -0.002323 -106.379684 71.020905
[L_front_hand02_02]
46 71.020927 -0.000119 0.000060 0.000334 -0.002323 -106.379684 71.020927
47 71.020927 -0.000119 0.000060 0.000334 -0.002323 -106.379684 71.020927
[L_front_hand03_02]
46 71.020905 -0.000060 0.000060 0.000334 -0.002323 -106.379684 71.020905
47 71.020905 -0.000060 0.000060 0.000334 -0.002323 -106.379684 71.020905
[R_forearm]
46 322.776428 -0.000060 0.000030 0.213163 -0.011668 -88.106148 322.776428
47 322.776428 -0.000060 0.000030 0.203858 -0.059438 -75.166328 322.776428
[R_front_hand]
46 238.847015 -0.006795 2.210259 42.936222 -10.646152 -26.312963 238.857239
47 238.847015 -0.006795 2.210259 42.936222 -10.646152 -26.312963 238.857239
[R_weapon_bone]
46 155.664093 0.002503 -0.000030 0.003487 0.001180 -90.988930 155.664078
47 155.664093 0.002503 -0.000030 0.003487 0.001180 -90.988930 155.664078
[R_front_hand01_01]
46 87.624611 14.231146 22.918642 -154.633499 -59.950619 61.746044 91.683487
47 87.624611 14.231146 22.918642 -154.633499 -59.950619 61.746044 91.683487
[R_front_hand02_01]
46 89.356956 14.367283 -19.491137 154.602661 58.302849 63.744389 92.579636
47 89.356956 14.367283 -19.491137 154.602661 58.302849 63.744389 92.579636
[R_front_hand03_01]
46 87.286232 -22.307278 -0.143439 0.162155 -0.423168 -75.767921 90.091743
47 87.286232 -22.307278 -0.143439 0.162155 -0.423168 -75.767921 90.091743
[R_front_hand01_02]
46 71.020905 0.000060 0.000119 0.002323 -0.000334 106.381714 71.020905
47 71.020905 0.000060 0.000119 0.002323 -0.000334 106.381714 71.020905
[R_front_hand02_02]
46 71.020844 -0.000030 -0.000119 0.002323 -0.000334 106.381714 71.020836
47 71.020844 -0.000030 -0.000119 0.002323 -0.000334 106.381714 71.020836
[R_front_hand03_02]
46 71.020905 0.000000 0.000030 0.002323 -0.000334 106.381714 71.020905
47 71.020905 0.000000 0.000030 0.002323 -0.000334 106.381714 71.020905
[null_rope01_connect]
46 328.732483 0.000000 -0.000238 -127.103210 -57.190296 -143.654297 328.732483
47 328.732483 0.000000 -0.000238 -126.898506 -57.831821 -142.294144 328.732483
[Rope1_Seg01]
46 0.000018 -0.000475 0.000000 -17.877264 36.088245 156.892349 0.000475
47 0.000017 -0.000484 0.000000 -17.550043 35.852085 157.442093 0.000485
[Rope1_Seg02]
46 139.999863 -0.000179 0.000000 -0.613596 -0.904644 11.763781 139.999863
47 139.999863 -0.000179 0.000000 -0.545842 -0.100484 11.908204 139.999863
[Rope1_Seg03]
46 139.999924 0.000060 -0.000060 0.156041 -4.519017 13.329950 139.999924
47 139.999924 0.000060 -0.000060 0.454087 -2.850425 13.388359 139.999924
[Rope1_Seg04]
46 139.999924 -0.000060 -0.000119 0.990352 -5.416468 12.427237 139.999924
47 139.999924 -0.000060 -0.000119 0.917281 -4.561828 11.189318 139.999924
[Rope1_Seg05]
46 139.999832 0.000119 -0.000060 37.890511 21.686113 45.376087 139.999832
47 139.999832 0.000119 -0.000060 28.690100 19.396622 37.848457 139.999832
[Rope1_Seg06]
46 139.999954 0.000119 -0.000060 17.806332 25.993711 16.086639 139.999954
47 139.999954 0.000119 -0.000060 20.924780 27.140038 20.941250 139.999954
[Rope1_Seg07]
46 139.999985 0.000060 0.000000 2.735961 7.707736 2.680239 139.999985
47 139.999985 0.000060 0.000000 3.375572 8.857140 3.697875 139.999985
[Rope1_Seg09]
46 121.602913 0.000119 -0.000089 -89.793175 -1.359789 0.847147 121.602913
47 121.602913 0.000119 -0.000089 -89.793175 -1.359789 0.847147 121.602913
[L_mid_hand01]
46 103.859421 1.038730 8.195221 130.544373 -67.584534 -38.866943 104.187431
47 103.859421 1.038730 8.195221 130.544373 -67.584534 -38.866943 104.187431
[L_mid_hand02]
46 105.572853 -4.139662 -10.864139 -168.923172 43.409309 -73.498886 106.211075
47 105.572853 -4.139662 -10.864139 -168.923172 43.409309 -73.498886 106.211075
[L_mid_hand03]
46 104.641464 17.579376 -3.913581 -6.012627 17.808174 74.893669 106.179977
47 104.641464 17.579376 -3.913581 -6.012627 17.808174 74.893669 106.179977
[null_rope02_connect]
46 328.732849 0.000179 -0.000119 -96.186966 65.400719 -1.386986 328.732849
47 328.732849 0.000179 -0.000119 -97.616615 65.717178 -3.915071 328.732849
[Rope2_Seg01]
46 0.000095 0.000493 0.000000 80.568130 32.062405 15.829062 0.000502
47 0.000095 0.000501 0.000000 80.377075 30.074306 14.829845 0.000510
[Rope2_Seg02]
46 139.999741 -0.000060 -0.000119 -1.199767 -3.722697 -3.552612 139.999756
47 139.999741 -0.000060 -0.000119 -1.595972 -3.823853 -4.509197 139.999756
[Rope2_Seg03]
46 140.000107 0.000030 0.000000 -2.050250 -5.481694 -5.493385 140.000107
47 140.000107 0.000030 0.000000 -2.631610 -5.584410 -7.036524 140.000107
[Rope2_Seg04]
46 139.999802 0.000000 -0.000060 -3.981555 -8.674234 -9.624508 139.999802
47 139.999802 0.000000 -0.000060 -4.782597 -8.580348 -12.488024 139.999802
[Rope2_Seg05]
46 139.999985 -0.000060 0.000119 -8.433678 -13.957107 -20.452438 139.999985
47 139.999985 -0.000060 0.000119 -7.927297 -11.422347 -23.321150 139.999985
[Rope2_Seg06]
46 139.999893 -0.000030 -0.000119 -7.576149 -9.423612 -16.042305 139.999893
47 139.999893 -0.000030 -0.000119 -4.992711 -6.538577 -13.685648 139.999893
[Rope2_Seg07]
46 139.999893 0.000060 -0.000060 -4.263784 -6.781023 -6.586392 139.999893
47 139.999893 0.000060 -0.000060 -2.092837 -5.916132 -3.090244 139.999893
[Rope2_Seg09]
46 121.338966 0.000089 -0.000060 33.793236 -1.359788 -0.847141 121.338966
47 121.338966 0.000089 -0.000060 33.793236 -1.359788 -0.847141 121.338966
[R_mid_hand01]
46 104.680779 11.144459 -10.335981 -16.212063 45.237247 70.462852 105.778534
47 104.680779 11.144459 -10.335981 -16.212063 45.237247 70.462852 105.778534
[R_mid_hand02]
46 104.070427 2.443552 8.231699 49.067368 -67.749771 39.286453 104.424065
47 104.070427 2.443552 8.231699 49.067368 -67.749771 39.286453 104.424065
[R_mid_hand03]
46 106.028137 -11.221827 -5.996406 -177.101105 15.551026 -76.585571 106.788818
47 106.028137 -11.221827 -5.996406 -177.101105 15.551026 -76.585571 106.788818
[spine02]
46 129.756927 0.001550 0.000119 0.411060 -4.039455 -13.698467 129.756927
47 129.756927 0.001550 0.000119 0.403870 -4.040237 -13.599119 129.756927
[spine03]
46 78.613930 0.081751 -4.898992 1.930620 3.814161 16.965479 78.766472
47 78.613930 0.081753 -4.898991 1.926731 3.816122 16.904646 78.766472
[pelvis]
46 169.435242 0.051022 0.000000 -0.062008 -0.179700 15.070174 169.435257
47 169.435242 0.051022 0.000000 -0.061838 -0.179759 14.961694 169.435257
[null_rope03_connect]
46 -1.257226 -2.466202 137.391083 -178.042206 -86.056129 -95.193207 137.418976
47 -1.257226 -2.466202 137.391083 -177.424393 -86.436630 -95.774498 137.418976
[null_rope04_connect]
46 -1.259640 -2.480268 -137.844437 -178.042206 -86.056129 -95.193207 137.872513
47 -1.259640 -2.480268 -137.844437 -177.424393 -86.436630 -95.774498 137.872513
[Rope3_Seg01]
46 0.000000 0.000000 0.000000 -92.437912 -73.484451 49.572426 0.000000
47 0.000000 0.000000 0.000000 -91.556023 -74.508720 48.602928 0.000000
[Rope3_Seg02]
46 139.999924 -0.000119 0.000060 0.358322 18.333900 -1.142844 139.999924
47 139.999924 -0.000119 0.000060 0.208651 19.275410 -1.292285 139.999924
[Rope3_Seg03]
46 139.999924 -0.000119 0.000119 5.655696 25.648521 1.676090 139.999924
47 139.999924 -0.000119 0.000119 5.565702 25.807800 1.531745 139.999924
[Rope3_Seg04]
46 139.999924 0.000119 0.000000 8.890554 21.521906 -3.128424 139.999924
47 139.999924 0.000119 0.000000 8.276925 20.621704 -3.490812 139.999924
[Rope3_Seg05]
46 139.999924 -0.000238 0.000060 8.112316 30.093811 -32.863281 139.999924
47 139.999924 -0.000238 0.000060 8.029642 27.592091 -29.837723 139.999924
[Rope3_Seg06]
46 139.999893 -0.000119 -0.000060 0.963856 12.774899 -23.629723 139.999893
47 139.999893 -0.000119 -0.000060 1.327449 13.312675 -23.164011 139.999893
[Rope3_Seg07]
46 139.999771 0.000060 -0.000119 0.027837 4.507651 -8.399149 139.999771
47 139.999771 0.000060 -0.000119 0.130426 5.034201 -9.026684 139.999771
[Rope3_Seg08]
46 139.999985 -0.000060 0.000000 0.167332 2.090900 -3.938437 139.999985
47 139.999985 -0.000060 0.000000 0.196398 2.345143 -4.269294 139.999985
[Rope3_Seg09]
46 90.185997 -0.000179 -0.000060 89.793228 -1.359877 -0.847183 90.185997
47 90.185997 -0.000179 -0.000060 89.793228 -1.359877 -0.847183 90.185997
[R_rear_hand01]
46 103.366196 -6.073594 -10.757982 -177.714203 24.565960 -73.910950 104.101845
47 103.366196 -6.073594 -10.757982 -177.714203 24.565960 -73.910950 104.101845
[R_rear_hand02]
46 100.509819 12.039542 -7.992327 -12.874829 36.868488 72.167213 101.543350
47 100.509819 12.039542 -7.992327 -12.874829 36.868488 72.167213 101.543350
[R_rear_hand03]
46 101.539970 5.215704 5.435467 71.484581 -71.816628 21.513813 101.819031
47 101.539970 5.215704 5.435467 71.484581 -71.816628 21.513813 101.819031
[Rope4_Seg01]
46 0.000010 0.000038 -0.000114 -15.844872 -35.780212 160.312180 0.000121
47 0.000010 0.000038 -0.000114 -16.947329 -34.590908 161.332642 0.000121
[Rope4_Seg02]
46 139.999985 0.000060 0.000119 -12.859024 8.772271 18.005613 139.999985
47 139.999985 0.000060 0.000119 -14.291731 7.705751 18.393871 139.999985
[Rope4_Seg03]
46 139.999924 0.000000 -0.000238 -12.231498 8.022097 11.515273 139.999924
47 139.999924 0.000000 -0.000238 -13.687083 5.962402 11.814898 139.999924
[Rope4_Seg04]
46 139.999985 0.000000 0.000119 -26.763506 -1.377820 13.030045 139.999985
47 139.999985 0.000000 0.000119 -23.357822 -2.323807 12.221469 139.999985
[Rope4_Seg05]
46 139.999802 -0.000060 -0.000119 -32.058197 -28.621414 17.807154 139.999802
47 139.999802 -0.000060 -0.000119 -28.903763 -24.986341 16.316450 139.999802
[Rope4_Seg06]
46 139.999924 0.000000 0.000060 -4.450357 -21.033094 0.375219 139.999924
47 139.999924 0.000000 0.000060 -5.598225 -20.060339 1.802217 139.999924
[Rope4_Seg07]
46 139.999802 0.000000 0.000000 -0.731860 -8.463802 -0.073114 139.999802
47 139.999802 0.000000 0.000000 -1.096766 -8.658550 0.357521 139.999802
[Rope4_Seg08]
46 139.999924 0.000000 0.000119 -1.707181 -4.388162 -0.096270 139.999924
47 139.999924 0.000000 0.000119 -1.858605 -4.593089 0.100964 139.999924
[Rope4_Seg09]
46 90.185791 0.000060 0.000060 -135.617828 2.228885 0.850567 90.185791
47 90.185791 0.000060 0.000060 -135.617828 2.228885 0.850567 90.185791
[L_rear_hand01]
46 101.696655 -8.392275 -7.654577 -12.874829 -36.868488 107.832764 102.329041
47 101.696655 -8.392275 -7.654577 -12.874829 -36.868488 107.832764 102.329041
[L_rear_hand02]
46 102.726799 -1.568258 5.773216 71.484581 71.816628 158.486160 102.900848
47 102.726799 -1.568258 5.773216 71.484581 71.816628 158.486160 102.900848
[L_rear_hand03]
46 104.552910 9.721220 -10.420293 -177.714203 -24.565960 -106.089035 105.519653
47 104.552910 9.721220 -10.420293 -177.714203 -24.565960 -106.089035 105.519653
